<svg width="48" height="48" viewBox="0 0 48 48" fill="none" xmlns="http://www.w3.org/2000/svg">
<g clip-path="url(#clip0_12_158)">
<path d="M31.7958 32.5028C30.1857 32.5028 28.1258 31.7851 27.1271 31.1858L26.1629 35.065C27.4799 35.7827 29.5146 36.2822 31.7958 36.2822C36.78 36.2822 39.3547 33.8947 39.3547 30.6398C39.3171 28.0774 37.9283 26.3953 34.6109 25.2625C32.4794 24.5073 31.8083 24.0796 31.8083 23.262C31.8083 22.3725 32.5511 21.8357 33.8681 21.8357C35.3661 21.8357 36.8547 22.41 37.6472 22.8375L38.6086 19.0926C37.5381 18.5558 35.7219 18.0939 33.6839 18.0939C29.3709 18.0939 26.5902 20.5562 26.5902 23.7988C26.5527 25.8711 27.9416 27.8342 31.5524 29.0418C33.5746 29.7253 34.1114 30.1497 34.1114 31.0392C34.1115 31.9317 33.428 32.5028 31.7958 32.5028Z" fill="black"/>
<path d="M14.0226 27.3346C14.5219 27.4065 15.168 27.4314 15.8731 27.4314C19.0814 27.4314 21.834 26.6512 23.6753 24.9098C25.1142 23.5553 25.8942 21.5548 25.8942 19.2049C25.8942 16.8517 24.8705 14.8513 23.3226 13.6434C21.7247 12.3514 19.3374 11.7179 15.9824 11.7179C12.668 11.7179 10.315 11.9366 8.64523 12.2173V35.9296H14.0225V27.3346H14.0226ZM14.032 16.0341C14.4128 15.9248 15.1681 15.8155 16.2635 15.8155C18.9817 15.8155 20.5078 17.1294 20.5201 19.336C20.5201 21.8015 18.7256 23.262 15.8389 23.262C15.0586 23.262 14.497 23.2278 14.032 23.1277V16.0341Z" fill="black"/>
<path d="M0 0V48H48V0H0ZM45.0309 45.0309H2.96907V2.96907H45.0309V45.0309Z" fill="black"/>
</g>
<defs>
<clipPath id="clip0_12_158">
<rect width="48" height="48" fill="white"/>
</clipPath>
</defs>
</svg>
