<svg width="48" height="48" viewBox="0 0 48 48" fill="none" xmlns="http://www.w3.org/2000/svg">
<g clip-path="url(#clip0_12_151)">
<path d="M0 25.7173L13.4484 33.4503V47.9484L1.44 41.0015C0.548437 40.4862 0 39.5334 0 38.5019L0 25.7173Z" fill="black"/>
<path d="M21.7078 27.0758L14.8547 31.0163L0.65062 22.8496V22.8486C0.867182 22.5826 1.13343 22.3548 1.43999 22.1778L13.0256 15.4755V22.86C13.0256 25.1844 14.9184 27.0759 17.2444 27.0759H21.7078V27.0758Z" fill="black"/>
<path d="M29.7094 27.0758V38.5535C29.7094 39.586 29.1609 40.5388 28.2694 41.0531L16.3369 47.9579C16.3116 47.9719 16.2863 47.986 16.2609 48.0001V33.4503L27.3469 27.0758H29.7094Z" fill="black"/>
<path d="M41.1366 9.70885C41.1366 10.4518 40.4362 11.0785 39.6084 11.0785C39.2756 11.0785 38.7187 11.0814 38.1862 11.0832C38.1844 10.5661 38.1806 8.88067 38.1787 8.33813H39.6084C40.4362 8.33823 41.1366 8.96588 41.1366 9.70885Z" fill="black"/>
<path d="M46.5937 0H17.2444C16.4681 0 15.8381 0.629625 15.8381 1.40531V22.8598C15.8381 23.6356 16.4681 24.2651 17.2444 24.2651H33.8775V29.8864C33.8391 31.065 35.3672 31.7498 36.2231 30.932L43.6528 24.2651H46.5937C47.37 24.2651 48 23.6356 48 22.8598V1.40531C48 0.629625 47.37 0 46.5937 0V0ZM30.2297 18.9277C29.5031 19.2022 28.6912 18.835 28.4175 18.1089L27.7706 16.3963H23.2641L22.6097 18.1136C22.3959 18.6739 21.8616 19.0187 21.2953 19.0187C21.1294 19.0187 20.9597 18.9887 20.7947 18.926C20.0691 18.6505 19.7053 17.8383 19.9819 17.1131L23.9944 6.58359C23.9981 6.57328 24.0028 6.56203 24.0075 6.55172C24.2616 5.93053 24.8597 5.52863 25.5309 5.52769H25.5328C26.2041 5.52769 26.8022 5.92866 27.0572 6.54891C27.0628 6.56109 27.0675 6.57422 27.0722 6.58734L31.0491 17.1169C31.3228 17.8429 30.9562 18.6542 30.2297 18.9277ZM43.5984 16.6849C44.1112 17.2676 44.055 18.1549 43.4719 18.6683C42.8908 19.1791 42.0025 19.1262 41.4872 18.5418L38.1712 14.7765V17.6134C38.1712 18.3892 37.5412 19.0187 36.765 19.0187C35.9878 19.0187 35.3587 18.3891 35.3587 17.6134V6.93291C35.3587 6.15712 35.9878 5.52759 36.765 5.52759H36.7669H36.7687H39.6084C42.0019 5.52759 43.9491 7.40325 43.9491 9.70884C43.9491 11.5611 42.6909 13.136 40.9547 13.6831L43.5984 16.6849ZM24.3356 13.5857H26.7094L25.5281 10.4565L24.3356 13.5857Z" fill="black"/>
</g>
<defs>
<clipPath id="clip0_12_151">
<rect width="48" height="48" fill="white"/>
</clipPath>
</defs>
</svg>
