<svg width="48" height="48" viewBox="0 0 48 48" fill="none" xmlns="http://www.w3.org/2000/svg">
<g clip-path="url(#clip0_12_200)">
<path d="M44.7846 36.0001C45.1193 35.4203 45.3273 34.7671 45.3273 34.1805V13.8195C45.3273 13.2329 45.1196 12.5799 44.7848 12.0001L30.9643 13.2453L21.4568 24.0001L29.0123 34.7754L44.7846 36.0001Z" fill="black"/>
<path d="M25.847 47.56L43.4803 37.3795C43.9882 37.0863 44.4499 36.5798 44.7846 35.9999L24.0001 24L10.3214 24.4834L3.21548 36.0001C3.55012 36.5798 4.01199 37.0864 4.51981 37.3795L22.153 47.56C23.1689 48.1466 24.8313 48.1466 25.847 47.56Z" fill="black"/>
<path d="M44.7847 11.9999C44.4499 11.42 43.9881 10.9136 43.4803 10.6203L25.847 0.439931C24.8313 -0.146644 23.1689 -0.146644 22.153 0.439931L4.5198 10.6204C3.50389 11.2068 2.67288 12.6465 2.67288 13.8195V34.1805C2.67288 34.7671 2.88075 35.4203 3.21558 36.0001L24.0002 24L44.7847 11.9999Z" fill="black"/>
<path d="M24.0001 38.2182C16.1602 38.2182 9.78192 31.8399 9.78192 24C9.78192 16.1601 16.1602 9.78186 24.0001 9.78186C29.0589 9.78186 33.777 12.5042 36.3129 16.8865L30.1597 20.4472C28.8905 18.2537 26.5301 16.891 24.0002 16.891C20.0802 16.891 16.891 20.08 16.891 24C16.891 27.9199 20.0801 31.109 24.0002 31.109C26.5304 31.109 28.8908 29.7463 30.1601 27.5525L36.3134 31.113C33.7774 35.4957 29.0592 38.2182 24.0001 38.2182Z" fill="white"/>
<path d="M38.2182 23.2101H36.6383V21.6304H35.0587V23.2101H33.4788V24.7899H35.0587V26.3698H36.6383V24.7899H38.2182V23.2101Z" fill="white"/>
<path d="M44.1424 23.2101H42.5625V21.6304H40.9829V23.2101H39.403V24.7899H40.9829V26.3698H42.5625V24.7899H44.1424V23.2101Z" fill="white"/>
</g>
<defs>
<clipPath id="clip0_12_200">
<rect width="48" height="48" fill="white"/>
</clipPath>
</defs>
</svg>
