<svg width="24" height="25" viewBox="0 0 24 25" fill="none" xmlns="http://www.w3.org/2000/svg">
<path d="M12 0.5C5.37188 0.5 0 5.87188 0 12.5C0 19.1281 5.37188 24.5 12 24.5C18.6281 24.5 24 19.1281 24 12.5C24 5.87188 18.6281 0.5 12 0.5ZM12 22.25C6.62344 22.25 2.25 17.8761 2.25 12.5C2.25 7.12391 6.62344 2.75 12 2.75C17.3766 2.75 21.75 7.12391 21.75 12.5C21.75 17.8761 17.3766 22.25 12 22.25ZM11.9578 8.75C12.945 8.75 13.8759 9.13963 14.5748 9.84594C15.0143 10.2839 15.7247 10.2912 16.1672 9.85326C16.6081 9.41526 16.611 8.70341 16.1745 8.26092C15.0495 7.1256 13.5519 6.50029 11.9581 6.50029C11.9581 6.50029 11.9596 6.50029 11.9581 6.50029C10.3658 6.50029 8.8667 7.1256 7.7417 8.26092C5.4242 10.599 5.4242 14.4015 7.7417 16.7406C8.8667 17.8759 10.3658 18.5012 11.9581 18.5012C11.9596 18.5012 11.9581 18.5012 11.9581 18.5012C13.5519 18.5012 15.0495 17.8759 16.1745 16.7406C16.611 16.2982 16.6081 15.5865 16.1672 15.1483C15.7248 14.7118 15.0145 14.7161 14.5748 15.1556C13.8759 15.8615 12.945 16.2515 11.9578 16.2515C11.9578 16.2515 11.9593 16.2515 11.9578 16.2515C10.9692 16.2515 10.0383 15.8619 9.33797 15.1556C7.88766 13.6921 7.88766 11.3104 9.33797 9.84464C10.0406 9.13906 10.9688 8.75 11.9578 8.75Z" fill="white"/>
</svg>
