<svg width="40" height="41" viewBox="0 0 40 41" fill="none" xmlns="http://www.w3.org/2000/svg">
<path d="M25.9184 22.1602L22.5684 25.5216C21.2098 26.8848 18.8195 26.9142 17.4316 25.5216L14.0814 22.1602L2.0489 34.2317C2.4968 34.4388 2.99062 34.5624 3.51562 34.5624H36.4844C37.0094 34.5624 37.503 34.439 37.9508 34.2318L25.9184 22.1602Z" fill="white"/>
<path d="M36.4844 6.4375H3.51563C2.99063 6.4375 2.4968 6.56109 2.04906 6.7682L14.9066 19.6684C14.9075 19.6693 14.9085 19.6695 14.9094 19.6703C14.9102 19.6712 14.9104 19.6723 14.9104 19.6723L19.0911 23.8669C19.5352 24.3109 20.465 24.3109 20.9091 23.8669L25.0889 19.673C25.0889 19.673 25.0899 19.6712 25.0908 19.6703C25.0908 19.6703 25.0927 19.6693 25.0935 19.6684L37.9508 6.76813C37.503 6.56094 37.0094 6.4375 36.4844 6.4375Z" fill="white"/>
<path d="M0.373906 8.40723C0.142187 8.87582 0 9.39598 0 9.95316V31.0469C0 31.6041 0.142031 32.1243 0.373828 32.5928L12.4272 20.5004L0.373906 8.40723Z" fill="white"/>
<path d="M39.6261 8.40723L27.5729 20.5006L39.6261 32.5932C39.8578 32.1246 40 31.6044 40 31.0471V9.95332C40 9.39598 39.8578 8.87582 39.6261 8.40723Z" fill="white"/>
</svg>
