<svg width="41" height="42" viewBox="0 0 41 42" fill="none" xmlns="http://www.w3.org/2000/svg">
<g clip-path="url(#clip0_8_15)">
<path d="M13.4689 32.0484C13.4689 32.2097 13.2834 32.3387 13.0495 32.3387C12.7834 32.3629 12.5979 32.2339 12.5979 32.0484C12.5979 31.8871 12.7834 31.7581 13.0173 31.7581C13.2592 31.7339 13.4689 31.8629 13.4689 32.0484ZM10.9608 31.6855C10.9044 31.8468 11.0656 32.0323 11.3076 32.0807C11.5173 32.1613 11.7592 32.0807 11.8076 31.9194C11.856 31.7581 11.7027 31.5726 11.4608 31.5C11.2511 31.4436 11.0173 31.5242 10.9608 31.6855ZM14.5253 31.5484C14.2915 31.6048 14.1302 31.7581 14.1544 31.9436C14.1786 32.1048 14.3882 32.2097 14.6302 32.1532C14.864 32.0968 15.0253 31.9436 15.0011 31.7823C14.9769 31.629 14.7592 31.5242 14.5253 31.5484ZM19.8318 0.645172C8.6463 0.645172 0.0898438 9.13711 0.0898438 20.3226C0.0898438 29.2661 5.71888 36.9194 13.7592 39.6129C14.7915 39.7984 15.1544 39.1613 15.1544 38.6371C15.1544 38.1371 15.1302 35.379 15.1302 33.6855C15.1302 33.6855 9.48501 34.8952 8.29952 31.2823C8.29952 31.2823 7.38017 28.9355 6.05759 28.3307C6.05759 28.3307 4.21081 27.0645 6.18662 27.0887C6.18662 27.0887 8.19468 27.25 9.29952 29.1694C11.0656 32.2823 14.0253 31.3871 15.1786 30.8548C15.364 29.5645 15.8882 28.6694 16.4689 28.1371C11.9608 27.6371 7.41242 26.9839 7.41242 19.2258C7.41242 17.0081 8.02533 15.8952 9.31565 14.4758C9.10597 13.9516 8.42049 11.7903 9.52533 9.00001C11.2108 8.47582 15.0898 11.1774 15.0898 11.1774C16.7027 10.7258 18.4366 10.4919 20.1544 10.4919C21.8721 10.4919 23.606 10.7258 25.2189 11.1774C25.2189 11.1774 29.0979 8.46775 30.7834 9.00001C31.8882 11.7984 31.2027 13.9516 30.9931 14.4758C32.2834 15.9032 33.0737 17.0161 33.0737 19.2258C33.0737 27.0081 28.3237 27.629 23.8157 28.1371C24.5576 28.7742 25.1866 29.9839 25.1866 31.879C25.1866 34.5968 25.1624 37.9597 25.1624 38.621C25.1624 39.1452 25.5334 39.7823 26.5576 39.5968C34.6221 36.9194 40.0898 29.2661 40.0898 20.3226C40.0898 9.13711 31.0173 0.645172 19.8318 0.645172ZM7.92855 28.4597C7.82371 28.5403 7.84791 28.7258 7.985 28.879C8.11404 29.0081 8.29952 29.0645 8.40436 28.9597C8.5092 28.879 8.48501 28.6936 8.34791 28.5403C8.21888 28.4113 8.03339 28.3548 7.92855 28.4597ZM7.05759 27.8065C7.00113 27.9113 7.08178 28.0403 7.24307 28.121C7.3721 28.2016 7.53339 28.1774 7.58984 28.0645C7.6463 27.9597 7.56565 27.8307 7.40436 27.75C7.24307 27.7016 7.11404 27.7258 7.05759 27.8065ZM9.67049 30.6774C9.54146 30.7823 9.58984 31.0242 9.77533 31.1774C9.96081 31.3629 10.1947 31.3871 10.2995 31.2581C10.4044 31.1532 10.356 30.9113 10.1947 30.7581C10.0173 30.5726 9.77533 30.5484 9.67049 30.6774ZM8.75113 29.4919C8.6221 29.5726 8.6221 29.7823 8.75113 29.9678C8.88017 30.1532 9.09791 30.2339 9.20275 30.1532C9.33178 30.0484 9.33178 29.8387 9.20275 29.6532C9.08984 29.4678 8.88017 29.3871 8.75113 29.4919Z" fill="white"/>
</g>
<defs>
<clipPath id="clip0_8_15">
<rect width="40" height="41.2903" fill="white" transform="translate(0.0898438)"/>
</clipPath>
</defs>
</svg>
