<svg width="48" height="48" viewBox="0 0 48 48" fill="none" xmlns="http://www.w3.org/2000/svg">
<path d="M16.7684 44.5263C18.2211 44.5263 18.6316 43.9579 18.6316 43.2316C18.6316 42.5052 18.6316 40.9263 18.6 38.6842C11.0526 40.2947 9.4421 35.0842 9.4421 35.0842C8.21052 32.021 6.41052 31.1684 6.41052 31.1684C3.94737 29.5263 6.6 29.5579 6.6 29.5579C9.31579 29.7474 10.7684 32.3053 10.7684 32.3053C13.2 36.4105 17.1158 35.2105 18.6632 34.5158C18.7895 33.1579 19.3895 31.8631 20.4 30.9158C14.3684 30.2526 8.02105 27.9474 8.02105 17.7158C7.98947 15.0631 9 12.4737 10.8316 10.5474C10.5158 9.8842 9.6 7.16841 11.0526 3.47368C11.0526 3.47368 13.3263 2.74736 18.5368 6.22104C22.9895 5.02104 27.6632 5.02104 32.1158 6.22104C37.2632 2.77894 39.5684 3.47368 39.5684 3.47368C41.0211 7.13683 40.1053 9.85262 39.8526 10.5474C41.6842 12.4737 42.6632 15.0631 42.6316 17.7158C42.6316 27.9789 36.2842 30.221 30.2211 30.8842C31.1684 31.6737 32.0526 33.3158 32.0526 35.8105C32.0526 39.4105 32.0211 42.2526 32.0211 43.1053C32.0211 43.8 32.3368 44.3684 33.8842 44.3684L16.7684 44.5263Z" fill="black"/>
</svg>
