<svg width="41" height="46" viewBox="0 0 41 46" fill="none" xmlns="http://www.w3.org/2000/svg">
<g clip-path="url(#clip0_8_13)">
<path d="M5.75056 37.0959V37.5959H6.25056H12.1791H12.1881H12.6881V37.0959V18.0308V17.5308H12.1881H6.25056H5.75056V18.0308V37.0959ZM34.4023 37.5959H34.9023V37.0959V26.6449C34.9023 24.0653 34.6276 21.6672 33.5171 19.9084C32.3733 18.0971 30.4095 17.0581 27.2863 17.0581C24.9625 17.0581 23.1943 18.0207 22.0898 19.2043V18.0308V17.5308H21.5898H15.9023H15.4023V18.0308V37.0959V37.5959H15.9023H21.8309H22.3309V37.0959V27.6614C22.3309 26.4267 22.4531 25.3156 22.8913 24.5225C23.1039 24.1377 23.389 23.832 23.7753 23.6185C24.1645 23.4034 24.686 23.2658 25.3934 23.2658C26.0723 23.2658 26.5386 23.4238 26.869 23.6547C27.2006 23.8864 27.4381 24.2214 27.607 24.6485C27.9562 25.5313 27.9738 26.6944 27.9738 27.822V37.0959V37.5959H28.4738H34.4023ZM2.93806 3.35352H37.2327C38.5245 3.35352 39.5898 4.41921 39.5898 5.7338V39.9227C39.5898 41.2373 38.5245 42.303 37.2327 42.303H2.93806C1.64824 42.303 0.589844 41.2394 0.589844 39.9227V5.7338C0.589844 4.41716 1.64824 3.35352 2.93806 3.35352ZM5.27734 11.9937C5.27734 14.1601 7.03667 15.9269 9.21484 15.9269C11.3922 15.9269 13.1523 14.1699 13.1523 11.9937C13.1523 9.82654 11.3832 8.06059 9.21484 8.06059C7.03667 8.06059 5.27734 9.82739 5.27734 11.9937Z" fill="white" stroke="white"/>
</g>
<defs>
<clipPath id="clip0_8_13">
<rect width="40" height="45.6566" fill="white" transform="translate(0.0898438)"/>
</clipPath>
</defs>
</svg>
