<svg width="48" height="48" viewBox="0 0 48 48" fill="none" xmlns="http://www.w3.org/2000/svg">
<path d="M37.8011 29.4184V20.6079C37.8011 20.2176 37.5009 20.0076 37.2008 20.2176L28.1951 25.4109C28 25.5159 27.8049 25.8161 27.8049 26.1164V36.5179C27.8049 36.9231 28.1051 37.1182 28.4053 36.9231L36 32.5253L43.4146 36.8181L24.0976 47.97L24.0525 47.9999L23.9925 47.97L10.9193 40.4052L4.72045 36.803L12.0902 32.5252L19.6998 36.9231C19.9999 37.1182 20.3001 36.8181 20.195 36.4279V26.0113C20.195 25.7111 20.0901 25.5159 19.7899 25.3208L10.7842 20.1126C10.5891 20.0075 10.1839 20.2175 10.1839 20.5177V29.3133L2.78424 33.621V11.212L22.2964 0V8.60038L14.6867 13.0131C14.3865 13.1032 14.3865 13.6135 14.6867 13.7036L23.6923 18.9118C23.9024 19.0169 24.2026 19.1069 24.5028 18.9118L33.5084 13.7036C33.8086 13.6135 33.8086 13.2083 33.5084 13.0131L25.8987 8.60038V0L45.2158 11.212V33.576L37.8011 29.4184Z" fill="black"/>
</svg>
