<svg width="439" height="20" viewBox="0 0 439 20" fill="none" xmlns="http://www.w3.org/2000/svg">
<path d="M303.368 7.28012H261.448C246.228 7.28012 231.018 7.17012 215.808 7.36012C201.488 7.53012 187.158 7.69012 172.858 8.47012C155.918 9.38012 138.958 10.2201 122.068 12.0301C112.408 13.0301 102.688 13.5501 93.0677 14.5101C82.8677 15.5101 72.7077 17.0101 62.4877 17.9001C50.4877 18.9001 38.5977 20.1401 26.4877 19.5001C19.4877 19.1201 12.3677 19.9201 5.29773 19.6501C3.71773 19.5901 2.06773 19.8001 0.747727 18.6501C0.460406 18.4406 0.240748 18.1515 0.115889 17.8186C-0.00897074 17.4856 -0.0335623 17.1234 0.0451517 16.7767C0.123866 16.4299 0.302437 16.1138 0.558807 15.8674C0.815177 15.621 1.13811 15.455 1.48773 15.3901C2.00872 15.3201 2.53674 15.3201 3.05773 15.3901C12.9977 16.3901 22.8477 15.0701 32.6977 14.1501C43.6177 13.1501 54.5377 12.1501 65.3977 10.6401C80.1277 8.64012 94.9277 7.37012 109.688 5.75012C115.838 5.08012 122.028 4.83012 128.198 4.36012C134.898 3.85012 141.578 3.11012 148.288 2.82012C159.768 2.32012 171.198 1.27012 182.708 1.14012C192.608 1.04012 202.518 0.98012 212.418 0.76012C216.308 0.68012 220.198 0.76012 224.088 0.81012C243.728 0.81012 263.348 -0.18988 282.988 0.0601203C299.088 0.28012 315.208 -0.32988 331.288 0.28012C344.908 0.80012 358.528 0.53012 372.138 1.22012C387.138 1.98012 402.138 2.89012 417.138 4.55012C422.888 5.18012 428.798 5.55012 434.268 7.77012C435.818 8.41012 438.668 8.62012 438.218 10.5701C437.638 13.1001 435.298 11.1001 433.768 10.9501C426.568 10.2201 419.408 8.95012 412.128 9.35012C405.388 9.68012 398.718 8.49012 391.998 8.35012C382.458 8.14012 372.918 7.80012 363.378 7.65012C343.378 7.35012 323.428 7.13012 303.448 6.88012L303.368 7.28012ZM264.778 4.36012C265.468 4.29012 266.158 4.25012 266.838 4.14012C267.089 4.12323 267.327 4.01903 267.509 3.84555C267.692 3.67207 267.808 3.44023 267.838 3.19012C267.846 3.06339 267.828 2.93633 267.786 2.8166C267.744 2.69688 267.677 2.58697 267.591 2.49351C267.505 2.40006 267.401 2.32499 267.286 2.27285C267.17 2.2207 267.045 2.19256 266.918 2.19012C265.548 1.99012 264.188 1.80012 262.818 1.69012C261.998 1.62012 260.908 1.41012 260.878 2.69012C260.878 3.79012 261.878 3.90012 262.718 4.08012C263.558 4.26012 264.098 4.26012 264.778 4.36012ZM297.098 4.24012C297.848 4.24012 298.768 4.18012 298.938 3.50012C299.108 2.82012 298.308 2.34012 297.628 2.13012C296.298 1.72012 294.948 1.28012 293.678 2.31012C293.628 2.36856 293.593 2.43812 293.575 2.51294C293.558 2.58777 293.559 2.66567 293.578 2.74012C294.298 4.35012 295.868 3.97012 297.098 4.24012ZM255.638 4.29012C256.182 4.25379 256.716 4.1253 257.218 3.91012C257.576 3.57718 257.812 3.13339 257.888 2.65012C257.888 2.53012 257.408 2.13012 257.118 2.10012C256.601 2.04293 256.078 2.08709 255.578 2.23012C254.908 2.41012 254.178 2.77012 254.378 3.59012C254.458 3.91012 255.218 4.07012 255.638 4.29012ZM351.008 3.59012C351.03 3.45563 351.025 3.31794 350.993 3.18551C350.96 3.05309 350.901 2.92873 350.818 2.82008C350.736 2.71143 350.632 2.62079 350.513 2.55373C350.395 2.48667 350.263 2.4446 350.128 2.43012C349.128 2.19012 348.028 2.21012 347.548 3.35012C347.338 3.83012 347.868 4.35012 348.398 4.35012C349.398 4.49012 350.448 4.57012 351.008 3.59012ZM237.288 3.27012C236.795 2.93495 236.225 2.73142 235.632 2.6789C235.038 2.62639 234.441 2.72665 233.898 2.97012C233.678 3.08012 233.448 3.66012 233.538 3.80012C234.408 5.01012 235.538 4.95012 236.758 4.38012C236.958 4.24012 237.058 3.78012 237.288 3.27012ZM322.538 2.39012C322.407 2.16381 322.208 1.98532 321.968 1.88091C321.729 1.7765 321.462 1.75169 321.208 1.81012C320.648 1.90012 320.208 2.20012 320.408 2.81012C320.506 3.05375 320.692 3.25209 320.928 3.36666C321.165 3.48122 321.435 3.50384 321.688 3.43012C321.814 3.42311 321.937 3.38991 322.05 3.33263C322.162 3.27534 322.262 3.19523 322.342 3.0974C322.422 2.99956 322.481 2.88615 322.514 2.76438C322.548 2.64261 322.556 2.51515 322.538 2.39012ZM161.898 5.05012C161.859 4.92991 161.791 4.82115 161.7 4.73343C161.609 4.64571 161.498 4.58174 161.376 4.54715C161.255 4.51256 161.126 4.50842 161.003 4.5351C160.879 4.56178 160.764 4.61845 160.668 4.70012C160.545 4.79811 160.448 4.92545 160.387 5.07047C160.326 5.21548 160.302 5.37353 160.318 5.53012C160.362 5.64853 160.433 5.75492 160.526 5.84077C160.619 5.92663 160.731 5.98957 160.852 6.02456C160.974 6.05955 161.102 6.06561 161.226 6.04227C161.35 6.01892 161.467 5.96682 161.568 5.89012C161.768 5.76012 161.798 5.34012 161.898 5.05012ZM345.578 3.37012C345.514 3.12969 345.363 2.92168 345.154 2.7867C344.945 2.65172 344.693 2.59946 344.448 2.64012C344.018 2.73012 343.338 3.08012 343.318 3.36012C343.258 4.19012 343.958 4.36012 344.648 4.28012C344.886 4.26434 345.11 4.16394 345.281 3.99706C345.452 3.83018 345.557 3.60781 345.578 3.37012ZM189.058 3.03012C188.788 3.16012 188.378 3.23012 188.288 3.44012C188.262 3.58238 188.273 3.72892 188.32 3.86557C188.368 4.00222 188.449 4.12434 188.558 4.22012C188.655 4.28255 188.768 4.31772 188.884 4.32199C189 4.32625 189.115 4.29945 189.217 4.24437C189.319 4.18928 189.404 4.10792 189.464 4.0087C189.524 3.90949 189.556 3.79604 189.558 3.68012C189.598 3.49012 189.238 3.25012 189.058 3.03012ZM87.7877 11.0301C87.6877 10.7501 87.6577 10.3501 87.4677 10.2301C87.3295 10.1809 87.1812 10.167 87.0362 10.1897C86.8913 10.2124 86.7543 10.271 86.6377 10.3601C86.552 10.4343 86.4903 10.5325 86.4606 10.6419C86.431 10.7514 86.4346 10.8672 86.4711 10.9746C86.5076 11.0819 86.5753 11.176 86.6656 11.2447C86.7558 11.3133 86.8645 11.3535 86.9777 11.3601C87.2077 11.4301 87.5177 11.1601 87.7877 11.0301ZM193.708 3.73012C193.542 3.95148 193.388 4.18183 193.248 4.42012C193.248 4.42012 193.508 4.69012 193.568 4.67012C193.803 4.5388 194.027 4.38829 194.238 4.22012L193.708 3.73012ZM338.708 4.30012C338.968 4.13012 339.378 4.00012 339.458 3.77012C339.46 3.60281 339.414 3.43836 339.326 3.29646C339.237 3.15457 339.109 3.04126 338.958 2.97012C338.438 2.79012 337.958 2.97012 337.958 3.63012C337.958 3.88012 338.428 4.08012 338.668 4.30012H338.708ZM127.958 7.08012C127.752 7.30047 127.562 7.53433 127.388 7.78012C127.388 7.78012 127.638 8.08012 127.728 8.06012C128.005 7.96837 128.272 7.8512 128.528 7.71012L127.958 7.08012ZM308.838 3.19012C308.648 2.96012 308.488 2.59012 308.258 2.54012C308.114 2.54586 307.974 2.58841 307.852 2.66371C307.729 2.739 307.628 2.84451 307.558 2.97012C307.507 3.07777 307.489 3.19789 307.506 3.31567C307.523 3.43346 307.573 3.54379 307.652 3.63306C307.731 3.72233 307.834 3.78666 307.948 3.81812C308.063 3.84958 308.185 3.8468 308.298 3.81012C308.508 3.79012 308.658 3.41012 308.838 3.19012ZM284.838 3.60012C284.768 3.29012 284.688 2.98012 284.618 2.68012C284.138 2.75191 283.673 2.89693 283.238 3.11012C282.898 3.33012 283.038 3.74012 283.458 3.89012C283.688 3.99843 283.947 4.02871 284.196 3.97638C284.445 3.92405 284.671 3.79195 284.838 3.60012ZM178.958 4.60012C179.218 4.48012 179.638 4.41012 179.688 4.23012C179.715 4.08329 179.705 3.93189 179.658 3.79018C179.61 3.64847 179.528 3.52112 179.418 3.42012C178.968 3.17012 178.498 3.32012 178.418 3.90012C178.458 4.12012 178.788 4.37012 178.958 4.60012ZM424.058 6.91012C423.998 6.78012 423.968 6.60012 423.868 6.56012C423.8 6.54491 423.73 6.54702 423.664 6.56626C423.597 6.58549 423.537 6.62122 423.488 6.67012C423.288 6.98012 423.418 7.20012 423.808 7.21012C423.898 7.21012 423.958 6.97012 424.058 6.91012ZM312.578 3.43012L312.008 2.97012C311.928 3.09012 311.758 3.29012 311.778 3.31012C311.955 3.48069 312.142 3.64095 312.338 3.79012L312.578 3.43012Z" fill="#FFD154"/>
</svg>
